<mxfile host="app.diagrams.net" modified="2022-10-18T11:55:17.886Z" agent="5.0 (Macintosh; Intel Mac OS X 10_15_7) AppleWebKit/537.36 (KHTML, like Gecko) Chrome/106.0.0.0 Safari/537.36" etag="6kmiBVBEmQLdIdfjEKRD" version="20.4.0" type="github">
  <diagram id="sJpCel3b5Ru8QgjHVeKa" name="第 1 页">
    <mxGraphModel dx="1113" dy="1822" grid="1" gridSize="10" guides="1" tooltips="1" connect="1" arrows="1" fold="1" page="1" pageScale="1" pageWidth="850" pageHeight="1100" math="0" shadow="0">
      <root>
        <mxCell id="0" />
        <mxCell id="1" parent="0" />
        <mxCell id="-06xfAzWJ38wEPQ6Gd0u-145" value="" style="rounded=0;whiteSpace=wrap;html=1;strokeColor=#c0c0c0;fontFamily=Helvetica;fontSize=18;fontColor=#000100;fillColor=#ffffff;gradientColor=none;" vertex="1" parent="1">
          <mxGeometry x="840" y="-120" width="960" height="710" as="geometry" />
        </mxCell>
        <mxCell id="-06xfAzWJ38wEPQ6Gd0u-144" value="" style="triangle;whiteSpace=wrap;html=1;rounded=0;strokeColor=#000100;fontFamily=Helvetica;fontSize=18;fontColor=#000100;fillColor=none;gradientColor=none;rotation=-90;" vertex="1" parent="1">
          <mxGeometry x="1025.09" y="-207.87" width="609.85" height="896.25" as="geometry" />
        </mxCell>
        <mxCell id="-06xfAzWJ38wEPQ6Gd0u-132" value="" style="rounded=0;whiteSpace=wrap;html=1;strokeColor=#006EFF;fontFamily=Helvetica;fontSize=18;fontColor=#000100;fillColor=none;gradientColor=none;dashed=1;strokeWidth=2;" vertex="1" parent="1">
          <mxGeometry x="1160" y="40" width="340" height="170" as="geometry" />
        </mxCell>
        <mxCell id="-06xfAzWJ38wEPQ6Gd0u-58" value="" style="rounded=0;whiteSpace=wrap;html=1;strokeColor=#c0c0c0;fontFamily=Helvetica;fontSize=18;fontColor=#000100;fillColor=#ffffff;gradientColor=none;" vertex="1" parent="1">
          <mxGeometry x="80" y="620" width="630" height="690" as="geometry" />
        </mxCell>
        <mxCell id="-06xfAzWJ38wEPQ6Gd0u-16" value="" style="ellipse;whiteSpace=wrap;html=1;aspect=fixed;rounded=0;fontFamily=Helvetica;fontSize=14;" vertex="1" parent="1">
          <mxGeometry x="135" y="735" width="550" height="550" as="geometry" />
        </mxCell>
        <mxCell id="-06xfAzWJ38wEPQ6Gd0u-1" value="" style="rounded=0;whiteSpace=wrap;html=1;" vertex="1" parent="1">
          <mxGeometry x="110" y="120" width="710" height="320" as="geometry" />
        </mxCell>
        <mxCell id="-06xfAzWJ38wEPQ6Gd0u-2" value="&lt;div&gt;&lt;font style=&quot;font-size: 14px;&quot;&gt;&lt;font color=&quot;#0000ff&quot;&gt;学生平安保障险&amp;nbsp;&lt;/font&gt;&lt;font color=&quot;#cc0000&quot;&gt;适合6-30岁的各类大、中、小学及中等专业学校全日制在册学生，均可作为本保险的被保险人，保险责任涵盖了意外身故、残疾，意外伤害门急诊，意外和疾病住院等人身风险，保费低，保障高，责任广，可为您的孩子提供全方位的风险保障；&amp;nbsp;&lt;/font&gt;&lt;font color=&quot;#660066&quot;&gt;保险期间一年。&lt;/font&gt;&lt;/font&gt;&lt;/div&gt;" style="rounded=0;whiteSpace=wrap;html=1;strokeColor=#0000FF;" vertex="1" parent="1">
          <mxGeometry x="150" y="170" width="260" height="240" as="geometry" />
        </mxCell>
        <mxCell id="-06xfAzWJ38wEPQ6Gd0u-3" value="&lt;table border=&quot;1&quot; width=&quot;100%&quot; height=&quot;100%&quot; cellpadding=&quot;4&quot; style=&quot;width:100%;height:100%;border-collapse:collapse;&quot;&gt;&lt;tbody&gt;&lt;tr style=&quot;background-color:#A7C942;color:#ffffff;border:1px solid #98bf21;&quot;&gt;&lt;th align=&quot;left&quot;&gt;名称&lt;/th&gt;&lt;th align=&quot;left&quot;&gt;值&lt;/th&gt;&lt;/tr&gt;&lt;tr style=&quot;border:1px solid #98bf21;&quot;&gt;&lt;td&gt;保险名称&lt;/td&gt;&lt;td&gt;学生平安保障险&lt;/td&gt;&lt;/tr&gt;&lt;tr style=&quot;background-color:#EAF2D3;border:1px solid #98bf21;&quot;&gt;&lt;td&gt;保险范围&lt;/td&gt;&lt;td&gt;&lt;div&gt;6-30岁的各类大、中、小学及中等&lt;/div&gt;&lt;div&gt;专业学校全日制在册学生，均可作为本保&lt;/div&gt;&lt;div&gt;险的被保险人，保险责任涵盖了意外身故、&lt;/div&gt;&lt;div&gt;残疾，意外伤害门急诊，意外和疾病住院&lt;/div&gt;&lt;div&gt;等人身风险，保费低，保障高，责任广，&lt;/div&gt;&lt;div&gt;可为您的孩子提供全方位的风险保障；&lt;/div&gt;&lt;/td&gt;&lt;/tr&gt;&lt;tr style=&quot;border:1px solid #98bf21;&quot;&gt;&lt;td&gt;保险期限&lt;/td&gt;&lt;td&gt;一年&lt;/td&gt;&lt;/tr&gt;&lt;/tbody&gt;&lt;/table&gt;" style="text;html=1;strokeColor=#c0c0c0;fillColor=#ffffff;overflow=fill;rounded=0;fontSize=14;fontColor=#660066;" vertex="1" parent="1">
          <mxGeometry x="460" y="170" width="340" height="240" as="geometry" />
        </mxCell>
        <mxCell id="-06xfAzWJ38wEPQ6Gd0u-14" value="" style="ellipse;whiteSpace=wrap;html=1;aspect=fixed;rounded=0;fontFamily=Helvetica;fontSize=14;strokeColor=#D0CECE;fillColor=#D0CECE;fontColor=#D0CECE;labelBackgroundColor=#D0CECE;" vertex="1" parent="1">
          <mxGeometry x="150" y="750" width="520" height="520" as="geometry" />
        </mxCell>
        <mxCell id="-06xfAzWJ38wEPQ6Gd0u-17" value="" style="rounded=0;whiteSpace=wrap;html=1;strokeColor=#c0c0c0;fontFamily=Helvetica;fontSize=14;fontColor=#660066;fillColor=#ffffff;gradientColor=none;dashed=1;" vertex="1" parent="1">
          <mxGeometry x="150" y="1005" width="520" height="10" as="geometry" />
        </mxCell>
        <mxCell id="-06xfAzWJ38wEPQ6Gd0u-18" value="" style="rounded=0;whiteSpace=wrap;html=1;strokeColor=#c0c0c0;fontFamily=Helvetica;fontSize=14;fontColor=#660066;fillColor=#ffffff;gradientColor=none;dashed=1;rotation=90;" vertex="1" parent="1">
          <mxGeometry x="150" y="1005" width="520" height="10" as="geometry" />
        </mxCell>
        <mxCell id="-06xfAzWJ38wEPQ6Gd0u-46" value="&lt;font color=&quot;#000100&quot;&gt;&lt;span style=&quot;font-size: 18px;&quot;&gt;1. 知识结构化困难&lt;/span&gt;&lt;/font&gt;" style="text;html=1;strokeColor=none;fillColor=none;align=center;verticalAlign=middle;whiteSpace=wrap;rounded=0;fontFamily=Helvetica;fontSize=14;fontColor=#660066;" vertex="1" parent="1">
          <mxGeometry x="229" y="850" width="150" height="30" as="geometry" />
        </mxCell>
        <mxCell id="-06xfAzWJ38wEPQ6Gd0u-47" value="&lt;font color=&quot;#000100&quot;&gt;&lt;span style=&quot;font-size: 18px;&quot;&gt;2. 知识规模化困难&lt;/span&gt;&lt;/font&gt;" style="text;html=1;strokeColor=none;fillColor=none;align=center;verticalAlign=middle;whiteSpace=wrap;rounded=0;fontFamily=Helvetica;fontSize=14;fontColor=#660066;" vertex="1" parent="1">
          <mxGeometry x="450" y="850" width="150" height="30" as="geometry" />
        </mxCell>
        <mxCell id="-06xfAzWJ38wEPQ6Gd0u-48" value="&lt;font color=&quot;#000100&quot;&gt;&lt;span style=&quot;font-size: 18px;&quot;&gt;3. 知识维护困难&lt;/span&gt;&lt;/font&gt;" style="text;html=1;strokeColor=none;fillColor=none;align=center;verticalAlign=middle;whiteSpace=wrap;rounded=0;fontFamily=Helvetica;fontSize=14;fontColor=#660066;" vertex="1" parent="1">
          <mxGeometry x="450" y="1140" width="150" height="30" as="geometry" />
        </mxCell>
        <mxCell id="-06xfAzWJ38wEPQ6Gd0u-49" value="&lt;font color=&quot;#000100&quot;&gt;&lt;span style=&quot;font-size: 18px;&quot;&gt;4. 知识问答效果较差&lt;/span&gt;&lt;/font&gt;" style="text;html=1;strokeColor=none;fillColor=none;align=center;verticalAlign=middle;whiteSpace=wrap;rounded=0;fontFamily=Helvetica;fontSize=14;fontColor=#660066;" vertex="1" parent="1">
          <mxGeometry x="220.5" y="1140" width="169" height="30" as="geometry" />
        </mxCell>
        <mxCell id="-06xfAzWJ38wEPQ6Gd0u-52" value="" style="shape=image;html=1;verticalAlign=top;verticalLabelPosition=bottom;labelBackgroundColor=#ffffff;imageAspect=0;aspect=fixed;image=https://cdn0.iconfinder.com/data/icons/phosphor-regular-vol-3/256/graph-128.png;rounded=0;strokeColor=#c0c0c0;fontFamily=Helvetica;fontSize=18;fontColor=#000100;fillColor=#ffffff;gradientColor=none;" vertex="1" parent="1">
          <mxGeometry x="500" y="905" width="70" height="70" as="geometry" />
        </mxCell>
        <mxCell id="-06xfAzWJ38wEPQ6Gd0u-59" value="" style="edgeStyle=orthogonalEdgeStyle;rounded=0;orthogonalLoop=1;jettySize=auto;html=1;fontFamily=Helvetica;fontSize=18;fontColor=#D0CECE;" edge="1" parent="1" source="-06xfAzWJ38wEPQ6Gd0u-54" target="-06xfAzWJ38wEPQ6Gd0u-49">
          <mxGeometry relative="1" as="geometry" />
        </mxCell>
        <mxCell id="-06xfAzWJ38wEPQ6Gd0u-54" value="" style="shape=image;html=1;verticalAlign=top;verticalLabelPosition=bottom;labelBackgroundColor=#ffffff;imageAspect=0;aspect=fixed;image=https://cdn4.iconfinder.com/data/icons/e-commerce-icon-set/48/FAQ-128.png;rounded=0;strokeColor=#c0c0c0;fontFamily=Helvetica;fontSize=18;fontColor=#000100;fillColor=#ffffff;gradientColor=none;" vertex="1" parent="1">
          <mxGeometry x="269" y="1050" width="70" height="70" as="geometry" />
        </mxCell>
        <mxCell id="-06xfAzWJ38wEPQ6Gd0u-55" value="" style="sketch=0;aspect=fixed;pointerEvents=1;shadow=0;dashed=0;html=1;strokeColor=none;labelPosition=center;verticalLabelPosition=bottom;verticalAlign=top;align=center;fillColor=#000100;shape=mxgraph.azure.code_file;rounded=0;fontFamily=Helvetica;fontSize=18;fontColor=#FFFFFF;labelBackgroundColor=default;" vertex="1" parent="1">
          <mxGeometry x="269" y="903.72" width="67" height="71.28" as="geometry" />
        </mxCell>
        <mxCell id="-06xfAzWJ38wEPQ6Gd0u-56" value="" style="shape=image;html=1;verticalAlign=top;verticalLabelPosition=bottom;labelBackgroundColor=#ffffff;imageAspect=0;aspect=fixed;image=https://cdn3.iconfinder.com/data/icons/mix-and-miscellaneous/93/handrawn_tool_doodle_Settings-128.png;rounded=0;strokeColor=#c0c0c0;fontFamily=Helvetica;fontSize=18;fontColor=#000100;fillColor=#ffffff;gradientColor=none;" vertex="1" parent="1">
          <mxGeometry x="500" y="1050" width="70" height="70" as="geometry" />
        </mxCell>
        <mxCell id="-06xfAzWJ38wEPQ6Gd0u-57" value="" style="sketch=0;html=1;aspect=fixed;strokeColor=#000100;shadow=0;align=center;verticalAlign=top;fillColor=#D0CECE;shape=mxgraph.gcp2.arrow_cycle;rounded=0;fontFamily=Helvetica;fontSize=18;fontColor=#D0CECE;" vertex="1" parent="1">
          <mxGeometry x="360" y="962.5" width="100" height="95" as="geometry" />
        </mxCell>
        <mxCell id="-06xfAzWJ38wEPQ6Gd0u-60" value="" style="rounded=0;whiteSpace=wrap;html=1;strokeColor=#c0c0c0;fontFamily=Helvetica;fontSize=18;fontColor=#D0CECE;fillColor=#ffffff;gradientColor=none;" vertex="1" parent="1">
          <mxGeometry x="150" y="1400" width="740" height="640" as="geometry" />
        </mxCell>
        <mxCell id="-06xfAzWJ38wEPQ6Gd0u-61" value="知识建模" style="rounded=1;whiteSpace=wrap;html=1;strokeColor=#9673a6;fontFamily=Helvetica;fontSize=18;fillColor=#e1d5e7;" vertex="1" parent="1">
          <mxGeometry x="270" y="1710" width="120" height="40" as="geometry" />
        </mxCell>
        <mxCell id="-06xfAzWJ38wEPQ6Gd0u-63" value="" style="strokeWidth=2;html=1;shape=mxgraph.flowchart.annotation_2;align=left;labelPosition=right;pointerEvents=1;rounded=0;strokeColor=#6c8ebf;fontFamily=Helvetica;fontSize=18;fillColor=#dae8fc;" vertex="1" parent="1">
          <mxGeometry x="389.5" y="1515" width="70" height="430" as="geometry" />
        </mxCell>
        <mxCell id="-06xfAzWJ38wEPQ6Gd0u-66" value="&lt;font color=&quot;#000100&quot;&gt;schema 设计&lt;/font&gt;" style="text;html=1;strokeColor=none;fillColor=none;align=center;verticalAlign=middle;whiteSpace=wrap;rounded=0;fontFamily=Helvetica;fontSize=18;fontColor=#D0CECE;" vertex="1" parent="1">
          <mxGeometry x="460" y="1500" width="110" height="30" as="geometry" />
        </mxCell>
        <mxCell id="-06xfAzWJ38wEPQ6Gd0u-67" value="&lt;font color=&quot;#000100&quot;&gt;原则&lt;/font&gt;" style="text;html=1;strokeColor=none;fillColor=none;align=center;verticalAlign=middle;whiteSpace=wrap;rounded=0;fontFamily=Helvetica;fontSize=18;fontColor=#D0CECE;" vertex="1" parent="1">
          <mxGeometry x="440" y="1715" width="110" height="30" as="geometry" />
        </mxCell>
        <mxCell id="-06xfAzWJ38wEPQ6Gd0u-68" value="" style="endArrow=none;html=1;rounded=0;fontFamily=Helvetica;fontSize=18;fontColor=#000100;exitX=0.521;exitY=0.5;exitDx=0;exitDy=0;exitPerimeter=0;fillColor=#dae8fc;strokeColor=#6c8ebf;" edge="1" parent="1" source="-06xfAzWJ38wEPQ6Gd0u-63">
          <mxGeometry width="50" height="50" relative="1" as="geometry">
            <mxPoint x="540" y="1760" as="sourcePoint" />
            <mxPoint x="470" y="1730" as="targetPoint" />
          </mxGeometry>
        </mxCell>
        <mxCell id="-06xfAzWJ38wEPQ6Gd0u-69" value="&lt;font color=&quot;#000100&quot;&gt;步骤&lt;/font&gt;" style="text;html=1;strokeColor=none;fillColor=none;align=center;verticalAlign=middle;whiteSpace=wrap;rounded=0;fontFamily=Helvetica;fontSize=18;fontColor=#D0CECE;" vertex="1" parent="1">
          <mxGeometry x="430" y="1930" width="110" height="30" as="geometry" />
        </mxCell>
        <mxCell id="-06xfAzWJ38wEPQ6Gd0u-70" value="" style="strokeWidth=2;html=1;shape=mxgraph.flowchart.annotation_2;align=left;labelPosition=right;pointerEvents=1;rounded=0;strokeColor=#6c8ebf;fontFamily=Helvetica;fontSize=18;fillColor=#dae8fc;" vertex="1" parent="1">
          <mxGeometry x="570" y="1465" width="50" height="100" as="geometry" />
        </mxCell>
        <mxCell id="-06xfAzWJ38wEPQ6Gd0u-71" value="&lt;font color=&quot;#000100&quot;&gt;概念&lt;/font&gt;" style="text;html=1;strokeColor=none;fillColor=none;align=center;verticalAlign=middle;whiteSpace=wrap;rounded=0;fontFamily=Helvetica;fontSize=18;fontColor=#D0CECE;" vertex="1" parent="1">
          <mxGeometry x="620" y="1450" width="50" height="30" as="geometry" />
        </mxCell>
        <mxCell id="-06xfAzWJ38wEPQ6Gd0u-72" value="" style="endArrow=none;html=1;rounded=0;fontFamily=Helvetica;fontSize=18;fontColor=#000100;fillColor=#dae8fc;strokeColor=#6c8ebf;exitX=0.52;exitY=0.33;exitDx=0;exitDy=0;exitPerimeter=0;" edge="1" parent="1" source="-06xfAzWJ38wEPQ6Gd0u-70">
          <mxGeometry width="50" height="50" relative="1" as="geometry">
            <mxPoint x="610" y="1500" as="sourcePoint" />
            <mxPoint x="620" y="1498" as="targetPoint" />
          </mxGeometry>
        </mxCell>
        <mxCell id="-06xfAzWJ38wEPQ6Gd0u-73" value="&lt;font color=&quot;#000100&quot;&gt;属性&lt;/font&gt;" style="text;html=1;strokeColor=none;fillColor=none;align=center;verticalAlign=middle;whiteSpace=wrap;rounded=0;fontFamily=Helvetica;fontSize=18;fontColor=#D0CECE;" vertex="1" parent="1">
          <mxGeometry x="620" y="1480" width="50" height="30" as="geometry" />
        </mxCell>
        <mxCell id="-06xfAzWJ38wEPQ6Gd0u-74" value="" style="endArrow=none;html=1;rounded=0;fontFamily=Helvetica;fontSize=18;fontColor=#000100;fillColor=#dae8fc;strokeColor=#6c8ebf;exitX=0.52;exitY=0.33;exitDx=0;exitDy=0;exitPerimeter=0;" edge="1" parent="1">
          <mxGeometry width="50" height="50" relative="1" as="geometry">
            <mxPoint x="596" y="1528" as="sourcePoint" />
            <mxPoint x="620" y="1528" as="targetPoint" />
          </mxGeometry>
        </mxCell>
        <mxCell id="-06xfAzWJ38wEPQ6Gd0u-75" value="&lt;font color=&quot;#000100&quot;&gt;关系&lt;/font&gt;" style="text;html=1;strokeColor=none;fillColor=none;align=center;verticalAlign=middle;whiteSpace=wrap;rounded=0;fontFamily=Helvetica;fontSize=18;fontColor=#D0CECE;" vertex="1" parent="1">
          <mxGeometry x="620" y="1510" width="50" height="30" as="geometry" />
        </mxCell>
        <mxCell id="-06xfAzWJ38wEPQ6Gd0u-76" value="&lt;font color=&quot;#000100&quot;&gt;约束&lt;/font&gt;" style="text;html=1;strokeColor=none;fillColor=none;align=center;verticalAlign=middle;whiteSpace=wrap;rounded=0;fontFamily=Helvetica;fontSize=18;fontColor=#D0CECE;" vertex="1" parent="1">
          <mxGeometry x="620" y="1550" width="50" height="30" as="geometry" />
        </mxCell>
        <mxCell id="-06xfAzWJ38wEPQ6Gd0u-77" value="" style="strokeWidth=2;html=1;shape=mxgraph.flowchart.annotation_2;align=left;labelPosition=right;pointerEvents=1;rounded=0;strokeColor=#6c8ebf;fontFamily=Helvetica;fontSize=18;fillColor=#dae8fc;" vertex="1" parent="1">
          <mxGeometry x="670" y="1515" width="50" height="100" as="geometry" />
        </mxCell>
        <mxCell id="-06xfAzWJ38wEPQ6Gd0u-78" value="&lt;font color=&quot;#000100&quot;&gt;领域本体&lt;/font&gt;" style="text;html=1;strokeColor=none;fillColor=none;align=center;verticalAlign=middle;whiteSpace=wrap;rounded=0;fontFamily=Helvetica;fontSize=18;fontColor=#D0CECE;" vertex="1" parent="1">
          <mxGeometry x="720" y="1500" width="80" height="30" as="geometry" />
        </mxCell>
        <mxCell id="-06xfAzWJ38wEPQ6Gd0u-79" value="" style="endArrow=none;html=1;rounded=0;fontFamily=Helvetica;fontSize=18;fontColor=#000100;fillColor=#dae8fc;strokeColor=#6c8ebf;exitX=0.5;exitY=0.32;exitDx=0;exitDy=0;exitPerimeter=0;" edge="1" parent="1">
          <mxGeometry width="50" height="50" relative="1" as="geometry">
            <mxPoint x="695" y="1567" as="sourcePoint" />
            <mxPoint x="724" y="1568" as="targetPoint" />
          </mxGeometry>
        </mxCell>
        <mxCell id="-06xfAzWJ38wEPQ6Gd0u-80" value="&lt;font color=&quot;#000100&quot;&gt;属性约束&lt;/font&gt;" style="text;html=1;strokeColor=none;fillColor=none;align=center;verticalAlign=middle;whiteSpace=wrap;rounded=0;fontFamily=Helvetica;fontSize=18;fontColor=#D0CECE;" vertex="1" parent="1">
          <mxGeometry x="724" y="1550" width="76" height="30" as="geometry" />
        </mxCell>
        <mxCell id="-06xfAzWJ38wEPQ6Gd0u-85" value="&lt;font color=&quot;#000100&quot;&gt;关系约束&lt;/font&gt;" style="text;html=1;strokeColor=none;fillColor=none;align=center;verticalAlign=middle;whiteSpace=wrap;rounded=0;fontFamily=Helvetica;fontSize=18;fontColor=#D0CECE;" vertex="1" parent="1">
          <mxGeometry x="720" y="1600" width="76" height="30" as="geometry" />
        </mxCell>
        <mxCell id="-06xfAzWJ38wEPQ6Gd0u-87" value="" style="strokeWidth=2;html=1;shape=mxgraph.flowchart.annotation_2;align=left;labelPosition=right;pointerEvents=1;rounded=0;strokeColor=#6c8ebf;fontFamily=Helvetica;fontSize=18;fillColor=#dae8fc;" vertex="1" parent="1">
          <mxGeometry x="530" y="1640" width="50" height="180" as="geometry" />
        </mxCell>
        <mxCell id="-06xfAzWJ38wEPQ6Gd0u-93" value="&lt;font color=&quot;#000100&quot;&gt;层次化&lt;/font&gt;" style="text;html=1;strokeColor=none;fillColor=none;align=center;verticalAlign=middle;whiteSpace=wrap;rounded=0;fontFamily=Helvetica;fontSize=18;fontColor=#D0CECE;" vertex="1" parent="1">
          <mxGeometry x="580" y="1620" width="60" height="30" as="geometry" />
        </mxCell>
        <mxCell id="-06xfAzWJ38wEPQ6Gd0u-94" value="&lt;font color=&quot;#000100&quot;&gt;网络化&lt;/font&gt;" style="text;html=1;strokeColor=none;fillColor=none;align=center;verticalAlign=middle;whiteSpace=wrap;rounded=0;fontFamily=Helvetica;fontSize=18;fontColor=#D0CECE;" vertex="1" parent="1">
          <mxGeometry x="580" y="1660" width="60" height="30" as="geometry" />
        </mxCell>
        <mxCell id="-06xfAzWJ38wEPQ6Gd0u-95" value="&lt;font color=&quot;#000100&quot;&gt;规模化&lt;/font&gt;" style="text;html=1;strokeColor=none;fillColor=none;align=center;verticalAlign=middle;whiteSpace=wrap;rounded=0;fontFamily=Helvetica;fontSize=18;fontColor=#D0CECE;" vertex="1" parent="1">
          <mxGeometry x="580" y="1700" width="60" height="30" as="geometry" />
        </mxCell>
        <mxCell id="-06xfAzWJ38wEPQ6Gd0u-96" value="" style="endArrow=none;html=1;rounded=0;fontFamily=Helvetica;fontSize=18;fontColor=#000100;fillColor=#dae8fc;strokeColor=#6c8ebf;exitX=0.52;exitY=0.33;exitDx=0;exitDy=0;exitPerimeter=0;" edge="1" parent="1">
          <mxGeometry width="50" height="50" relative="1" as="geometry">
            <mxPoint x="556" y="1674.5" as="sourcePoint" />
            <mxPoint x="580" y="1674.5" as="targetPoint" />
          </mxGeometry>
        </mxCell>
        <mxCell id="-06xfAzWJ38wEPQ6Gd0u-97" value="" style="endArrow=none;html=1;rounded=0;fontFamily=Helvetica;fontSize=18;fontColor=#000100;fillColor=#dae8fc;strokeColor=#6c8ebf;exitX=0.52;exitY=0.33;exitDx=0;exitDy=0;exitPerimeter=0;" edge="1" parent="1">
          <mxGeometry width="50" height="50" relative="1" as="geometry">
            <mxPoint x="556" y="1715" as="sourcePoint" />
            <mxPoint x="580" y="1715" as="targetPoint" />
          </mxGeometry>
        </mxCell>
        <mxCell id="-06xfAzWJ38wEPQ6Gd0u-98" value="&lt;font color=&quot;#000100&quot;&gt;便捷化&lt;/font&gt;" style="text;html=1;strokeColor=none;fillColor=none;align=center;verticalAlign=middle;whiteSpace=wrap;rounded=0;fontFamily=Helvetica;fontSize=18;fontColor=#D0CECE;" vertex="1" parent="1">
          <mxGeometry x="580" y="1730" width="60" height="30" as="geometry" />
        </mxCell>
        <mxCell id="-06xfAzWJ38wEPQ6Gd0u-99" value="" style="endArrow=none;html=1;rounded=0;fontFamily=Helvetica;fontSize=18;fontColor=#000100;fillColor=#dae8fc;strokeColor=#6c8ebf;exitX=0.52;exitY=0.33;exitDx=0;exitDy=0;exitPerimeter=0;" edge="1" parent="1">
          <mxGeometry width="50" height="50" relative="1" as="geometry">
            <mxPoint x="556" y="1745" as="sourcePoint" />
            <mxPoint x="580" y="1745" as="targetPoint" />
          </mxGeometry>
        </mxCell>
        <mxCell id="-06xfAzWJ38wEPQ6Gd0u-100" value="&lt;font color=&quot;#000100&quot;&gt;可视化&lt;/font&gt;" style="text;html=1;strokeColor=none;fillColor=none;align=center;verticalAlign=middle;whiteSpace=wrap;rounded=0;fontFamily=Helvetica;fontSize=18;fontColor=#D0CECE;" vertex="1" parent="1">
          <mxGeometry x="580" y="1760" width="60" height="30" as="geometry" />
        </mxCell>
        <mxCell id="-06xfAzWJ38wEPQ6Gd0u-101" value="" style="endArrow=none;html=1;rounded=0;fontFamily=Helvetica;fontSize=18;fontColor=#000100;fillColor=#dae8fc;strokeColor=#6c8ebf;exitX=0.52;exitY=0.33;exitDx=0;exitDy=0;exitPerimeter=0;" edge="1" parent="1">
          <mxGeometry width="50" height="50" relative="1" as="geometry">
            <mxPoint x="556" y="1775" as="sourcePoint" />
            <mxPoint x="580" y="1775" as="targetPoint" />
          </mxGeometry>
        </mxCell>
        <mxCell id="-06xfAzWJ38wEPQ6Gd0u-102" value="&lt;font color=&quot;#000100&quot;&gt;高内聚低耦合&lt;/font&gt;" style="text;html=1;strokeColor=none;fillColor=none;align=center;verticalAlign=middle;whiteSpace=wrap;rounded=0;fontFamily=Helvetica;fontSize=18;fontColor=#D0CECE;" vertex="1" parent="1">
          <mxGeometry x="580" y="1800" width="110" height="30" as="geometry" />
        </mxCell>
        <mxCell id="-06xfAzWJ38wEPQ6Gd0u-103" value="" style="strokeWidth=2;html=1;shape=mxgraph.flowchart.annotation_2;align=left;labelPosition=right;pointerEvents=1;rounded=0;strokeColor=#6c8ebf;fontFamily=Helvetica;fontSize=18;fillColor=#dae8fc;" vertex="1" parent="1">
          <mxGeometry x="510" y="1895" width="50" height="100" as="geometry" />
        </mxCell>
        <mxCell id="-06xfAzWJ38wEPQ6Gd0u-104" value="&lt;font color=&quot;#000100&quot;&gt;领域专家业务梳理&lt;/font&gt;" style="text;html=1;strokeColor=none;fillColor=none;align=center;verticalAlign=middle;whiteSpace=wrap;rounded=0;fontFamily=Helvetica;fontSize=18;fontColor=#D0CECE;" vertex="1" parent="1">
          <mxGeometry x="560" y="1880" width="150" height="30" as="geometry" />
        </mxCell>
        <mxCell id="-06xfAzWJ38wEPQ6Gd0u-105" value="&lt;font color=&quot;#000100&quot;&gt;业务归类&lt;/font&gt;" style="text;html=1;strokeColor=none;fillColor=none;align=center;verticalAlign=middle;whiteSpace=wrap;rounded=0;fontFamily=Helvetica;fontSize=18;fontColor=#D0CECE;" vertex="1" parent="1">
          <mxGeometry x="564" y="1930" width="76" height="30" as="geometry" />
        </mxCell>
        <mxCell id="-06xfAzWJ38wEPQ6Gd0u-106" value="&lt;font color=&quot;#000100&quot;&gt;知识模型设计&lt;/font&gt;" style="text;html=1;strokeColor=none;fillColor=none;align=center;verticalAlign=middle;whiteSpace=wrap;rounded=0;fontFamily=Helvetica;fontSize=18;fontColor=#D0CECE;" vertex="1" parent="1">
          <mxGeometry x="560" y="1980" width="120" height="30" as="geometry" />
        </mxCell>
        <mxCell id="-06xfAzWJ38wEPQ6Gd0u-116" value="" style="edgeStyle=elbowEdgeStyle;fontSize=12;html=1;shape=link;rounded=0;strokeColor=#FFFFFF;fontFamily=Helvetica;fontColor=#000100;exitX=0.5;exitY=0;exitDx=0;exitDy=0;exitPerimeter=0;entryX=0.5;entryY=0.3;entryDx=0;entryDy=0;entryPerimeter=0;" edge="1" parent="1" source="-06xfAzWJ38wEPQ6Gd0u-107" target="-06xfAzWJ38wEPQ6Gd0u-107">
          <mxGeometry width="160" relative="1" as="geometry">
            <mxPoint x="1340" y="370" as="sourcePoint" />
            <mxPoint x="1500" y="370" as="targetPoint" />
          </mxGeometry>
        </mxCell>
        <mxCell id="-06xfAzWJ38wEPQ6Gd0u-122" value="知识构建" style="text;html=1;strokeColor=none;fillColor=none;align=center;verticalAlign=middle;whiteSpace=wrap;rounded=0;fontFamily=Helvetica;fontSize=18;fontColor=#000100;" vertex="1" parent="1">
          <mxGeometry x="1060" y="260" width="90" height="30" as="geometry" />
        </mxCell>
        <mxCell id="-06xfAzWJ38wEPQ6Gd0u-126" value="知识应用" style="text;html=1;strokeColor=none;fillColor=none;align=center;verticalAlign=middle;whiteSpace=wrap;rounded=0;fontFamily=Helvetica;fontSize=18;fontColor=#000100;" vertex="1" parent="1">
          <mxGeometry x="1160" y="40" width="90" height="30" as="geometry" />
        </mxCell>
        <mxCell id="-06xfAzWJ38wEPQ6Gd0u-131" value="" style="rounded=0;whiteSpace=wrap;html=1;strokeColor=#006EFF;fontFamily=Helvetica;fontSize=18;fontColor=#000100;fillColor=none;gradientColor=none;dashed=1;strokeWidth=2;" vertex="1" parent="1">
          <mxGeometry x="1060" y="260" width="540" height="260" as="geometry" />
        </mxCell>
        <mxCell id="-06xfAzWJ38wEPQ6Gd0u-107" value="数据源" style="strokeWidth=2;html=1;shape=mxgraph.flowchart.database;whiteSpace=wrap;rounded=0;strokeColor=#9673a6;fontFamily=Helvetica;fontSize=18;fillColor=#e1d5e7;" vertex="1" parent="1">
          <mxGeometry x="1070" y="460" width="520" height="50" as="geometry" />
        </mxCell>
        <mxCell id="-06xfAzWJ38wEPQ6Gd0u-108" value="映射 抽取" style="strokeWidth=2;html=1;shape=mxgraph.flowchart.database;whiteSpace=wrap;rounded=0;strokeColor=#36393d;fontFamily=Helvetica;fontSize=18;fillColor=#cce5ff;" vertex="1" parent="1">
          <mxGeometry x="1110" y="380" width="440" height="50" as="geometry" />
        </mxCell>
        <mxCell id="-06xfAzWJ38wEPQ6Gd0u-109" value="知识储存 维护" style="strokeWidth=2;html=1;shape=mxgraph.flowchart.database;whiteSpace=wrap;rounded=0;strokeColor=#6c8ebf;fontFamily=Helvetica;fontSize=18;fillColor=#dae8fc;" vertex="1" parent="1">
          <mxGeometry x="1140" y="290" width="380" height="50" as="geometry" />
        </mxCell>
        <mxCell id="-06xfAzWJ38wEPQ6Gd0u-110" value="知识推理" style="strokeWidth=2;html=1;shape=mxgraph.flowchart.database;whiteSpace=wrap;rounded=0;strokeColor=#0e8088;fontFamily=Helvetica;fontSize=18;fillColor=#b0e3e6;" vertex="1" parent="1">
          <mxGeometry x="1190" y="140" width="280" height="50" as="geometry" />
        </mxCell>
        <mxCell id="-06xfAzWJ38wEPQ6Gd0u-111" value="知识应用" style="strokeWidth=2;html=1;shape=mxgraph.flowchart.database;whiteSpace=wrap;rounded=0;strokeColor=#d79b00;fontFamily=Helvetica;fontSize=18;fillColor=#ffcd28;gradientColor=#ffa500;" vertex="1" parent="1">
          <mxGeometry x="1240" y="60" width="180" height="50" as="geometry" />
        </mxCell>
        <mxCell id="-06xfAzWJ38wEPQ6Gd0u-118" value="非结构化" style="text;html=1;strokeColor=none;fillColor=none;align=center;verticalAlign=middle;whiteSpace=wrap;rounded=0;fontFamily=Helvetica;fontSize=18;fontColor=#000100;" vertex="1" parent="1">
          <mxGeometry x="1400" y="450" width="91" height="30" as="geometry" />
        </mxCell>
        <mxCell id="-06xfAzWJ38wEPQ6Gd0u-117" value="结构化" style="text;html=1;strokeColor=none;fillColor=none;align=center;verticalAlign=middle;whiteSpace=wrap;rounded=0;fontFamily=Helvetica;fontSize=18;fontColor=#000100;" vertex="1" parent="1">
          <mxGeometry x="1160" y="450" width="60" height="30" as="geometry" />
        </mxCell>
        <mxCell id="-06xfAzWJ38wEPQ6Gd0u-133" value="" style="endArrow=none;html=1;strokeWidth=6;rounded=0;strokeColor=#FFFFFF;fontFamily=Helvetica;fontSize=18;fontColor=#000100;exitX=0.5;exitY=0;exitDx=0;exitDy=0;exitPerimeter=0;entryX=0.492;entryY=0.28;entryDx=0;entryDy=0;entryPerimeter=0;" edge="1" parent="1" source="-06xfAzWJ38wEPQ6Gd0u-107" target="-06xfAzWJ38wEPQ6Gd0u-107">
          <mxGeometry width="50" height="50" relative="1" as="geometry">
            <mxPoint x="1330" y="330" as="sourcePoint" />
            <mxPoint x="1330" y="480" as="targetPoint" />
          </mxGeometry>
        </mxCell>
      </root>
    </mxGraphModel>
  </diagram>
</mxfile>
